<mxfile host="app.diagrams.net" modified="2023-06-05T07:18:55.221Z" agent="Mozilla/5.0 (X11; Linux x86_64) AppleWebKit/537.36 (KHTML, like Gecko) Chrome/112.0.0.0 Safari/537.36" version="21.3.7" etag="PRUhATnuGgG5qjteNCCJ" type="github">
  <diagram name="第 1 页" id="j99cnyDazcMrx7NJoyRV">
    <mxGraphModel>
      <root>
        <mxCell id="0" />
        <mxCell id="1" parent="0" />
      </root>
    </mxGraphModel>
  </diagram>
</mxfile>
